<svg width="221" height="33" viewBox="0 0 221 33" fill="none" xmlns="http://www.w3.org/2000/svg">
<path d="M0 0.818359H15.1226V10.902H15.2213L26.7504 0.818359H43.6958L29.7633 13.1893L45.8612 30.1869H26.7504L15.2213 18.1527H15.1226V30.1869H0V0.818359Z" fill="#860035"/>
<path d="M67.7179 0C84.8839 0 89.5571 3.53537 89.5571 15.5812C89.5571 27.627 84.8839 31.1624 67.7179 31.1624C50.5519 31.1624 45.8613 27.6212 45.8613 15.5812C45.8613 3.54118 50.5519 0 67.7179 0ZM67.7179 25.0727C74.4404 25.0727 73.9992 17.7059 73.9992 15.2735C73.9992 12.8411 74.0804 6.08386 67.7179 6.08386C61.3554 6.08386 61.4367 12.8411 61.4367 15.2735C61.4367 17.7059 60.9897 25.0727 67.7179 25.0727Z" fill="#860035"/>
<path d="M122.159 19.1569V30.361H137.682V1.01562H122.159V11.0993H111.025V1.01562H95.5015V30.361H111.025V19.1569H122.159Z" fill="#860035"/>
<path d="M145.014 1.01562H160.897V23.3773L175.259 23.4121C175.789 23.3825 176.306 23.2334 176.77 22.9761C177.235 22.7187 177.635 22.3598 177.941 21.926V30.361H145.014V1.01562Z" fill="#860035"/>
<path d="M214.967 10.7348C211.681 8.14568 208.866 7.2807 205.841 7.25167C202.816 7.22265 200.175 8.20953 200.175 9.98012C200.175 11.3792 202.195 11.9539 209.266 13.3994C215.071 14.5953 218.938 17.5095 218.938 22.9373C218.938 29.027 208.569 32.5101 199.299 32.5101C192.785 32.5101 187.787 31.3491 183.311 29.3811V21.161C186.08 23.9939 192.263 25.5033 197 25.5033C199.629 25.5033 200.918 25.1259 200.918 23.0651C200.918 21.7937 199.281 20.6385 194.318 19.7445C184.913 18.0494 181.738 15.408 181.738 10.8799C181.738 4.38971 189.964 0.523438 200.082 0.523438C205.545 0.523438 210.532 0.691788 214.967 2.7062V10.7348Z" fill="#860035"/>
<path d="M169.1 12.987L170.185 11.1003C166.917 9.51545 165.948 5.46922 167.608 3.15875C169.396 0.679922 174.365 -0.388237 177.059 3.48384C177.827 4.51845 178.163 5.81054 177.997 7.08818C177.832 8.36582 177.177 9.52938 176.171 10.334C175.161 11.1003 169.1 12.987 169.1 12.987Z" fill="#860035"/>
<path d="M220.017 3.7858C220.032 4.04973 219.992 4.31384 219.901 4.562C219.81 4.81015 219.67 5.03713 219.488 5.22907C219.306 5.42102 219.087 5.5739 218.844 5.67839C218.602 5.78287 218.34 5.83676 218.076 5.83676C217.811 5.83676 217.55 5.78287 217.307 5.67839C217.064 5.5739 216.845 5.42102 216.663 5.22907C216.482 5.03713 216.341 4.81015 216.25 4.562C216.159 4.31384 216.119 4.04973 216.134 3.7858C216.161 3.28915 216.377 2.82178 216.739 2.47982C217.1 2.13785 217.578 1.94727 218.076 1.94727C218.573 1.94727 219.051 2.13785 219.413 2.47982C219.774 2.82178 219.99 3.28915 220.017 3.7858ZM216.436 3.7858C216.422 4.00937 216.455 4.2333 216.531 4.44383C216.608 4.65437 216.726 4.84705 216.88 5.01006C217.034 5.17307 217.219 5.30294 217.424 5.39172C217.63 5.48049 217.852 5.52629 218.076 5.52629C218.3 5.52629 218.521 5.48049 218.727 5.39172C218.932 5.30294 219.118 5.17307 219.271 5.01006C219.425 4.84705 219.544 4.65437 219.62 4.44383C219.696 4.2333 219.729 4.00937 219.716 3.7858C219.729 3.56223 219.696 3.3383 219.62 3.12776C219.544 2.91723 219.425 2.72454 219.271 2.56154C219.118 2.39853 218.932 2.26865 218.727 2.17988C218.521 2.0911 218.3 2.04531 218.076 2.04531C217.852 2.04531 217.63 2.0911 217.424 2.17988C217.219 2.26865 217.034 2.39853 216.88 2.56154C216.726 2.72454 216.608 2.91723 216.531 3.12776C216.455 3.3383 216.422 3.56223 216.436 3.7858ZM217.649 4.91201H217.37V2.66539H218.235C218.74 2.66539 218.967 2.88599 218.967 3.28655C218.973 3.3666 218.963 3.44711 218.937 3.52299C218.91 3.59887 218.869 3.66848 218.814 3.7274C218.759 3.78633 218.693 3.83329 218.62 3.86533C218.546 3.89736 218.466 3.91377 218.386 3.91351L219.06 4.91201H218.735L218.102 3.91351H217.637L217.649 4.91201ZM218.015 3.6813C218.351 3.6813 218.688 3.6813 218.688 3.28655C218.688 2.8918 218.427 2.8976 218.154 2.8976H217.649V3.6813H218.015Z" fill="#860035"/>
</svg>
