<?xml version="1.0" encoding="UTF-8"?>
<svg width="140px" height="72px" viewBox="0 0 140 72" version="1.1" xmlns="http://www.w3.org/2000/svg" xmlns:xlink="http://www.w3.org/1999/xlink">
    <!-- Generator: Sketch 63.1 (92452) - https://sketch.com -->
    <title>branding/white/desktop@1.5x</title>
    <desc>Created with Sketch.</desc>
    <g id="branding/white/desktop" stroke="none" stroke-width="1" fill="none" fill-rule="evenodd">
        <g>
            <g id="Global/Color/red" fill="#B30000" fill-rule="nonzero">
                <rect id="COLOR" x="0" y="0" width="139.999992" height="71.9999957"></rect>
            </g>
            <g id="OD-Logo-(white)" transform="translate(21.000000, 23.000000)" fill="#FFFFFF">
                <path d="M19.137651,1.89388841 C18.7321364,1.81387511 18.36402,1.76413711 18.0479678,1.76413711 C17.220806,1.76413711 16.7456279,2.07914443 16.7456279,2.83674785 L16.7456279,3.46820417 L18.6580731,3.46820417 L18.6580731,5.1448793 L16.7456279,5.1448793 L16.7456279,8.97182179 C17.2802033,9.01939726 17.8543768,9.08211039 18.327355,9.15419445 L18.327355,10.5656002 L12.397895,10.5656002 L12.397895,9.15419445 C12.8738065,9.08211039 13.4450468,9.01939726 13.9869552,8.97182179 L13.9869552,5.1448793 L12.2849669,5.1448793 L12.2849669,3.46820417 L13.9869552,3.46820417 L13.9869552,2.86486063 C13.9869552,0.971212503 15.147035,0.0146570912 17.7656476,0.0146570912 C18.2452255,0.0146570912 18.7614683,0.0456532349 19.3033766,0.127108217 L19.137651,1.89388841" id="Fill-1"></path>
                <path d="M26.136995,1.89388841 C25.7175476,1.81387511 25.3442981,1.76413711 25.0392455,1.76413711 C24.2025508,1.76413711 23.7339724,2.07914443 23.7339724,2.83674785 L23.7339724,3.46820417 L25.6266185,3.46820417 L25.6266185,5.1448793 L23.7339724,5.1448793 L23.7339724,8.97182179 C24.2707476,9.01939726 24.8405214,9.08211039 25.3164327,9.15419445 L25.3164327,10.5656002 L19.3979724,10.5656002 L19.3979724,9.15419445 C19.8797501,9.08211039 20.4282581,9.01939726 20.9767662,8.97182179 L20.9767662,5.1448793 L19.2711115,5.1448793 L19.2711115,3.46820417 L20.9767662,3.46820417 L20.9767662,2.86486063 C20.9767662,0.971212503 22.1441791,0.0146570912 24.753992,0.0146570912 C25.2365032,0.0146570912 25.7542126,0.0456532349 26.2939211,0.127108217 L26.136995,1.89388841" id="Fill-2"></path>
                <path d="M26.2755886,10.5656002 L26.2755886,9.15419445 C26.7544331,9.08211039 27.3117408,9.01939726 27.8470494,8.97182179 L27.8470494,5.12109156 C27.4268688,5.06630768 26.8013643,5.00503623 26.2755886,4.9884569 L26.2755886,3.59146791 C27.588928,3.46820417 29.0885255,3.41558281 30.6189216,3.46315829 L30.6189216,8.97182179 C31.1226984,9.01939726 31.6587404,9.08211039 32.0752545,9.15419445 L32.0752545,10.5656002 L26.2755886,10.5656002 Z M29.2373853,2.73006345 C28.3148945,2.73006345 27.552263,2.15771605 27.552263,1.44408391 C27.552263,0.723243354 28.3148945,0.160266883 29.2373853,0.160266883 C30.1730755,0.160266883 30.9313072,0.723243354 30.9313072,1.44408391 C30.9313072,2.1461826 30.1730755,2.73006345 29.2373853,2.73006345 Z" id="Fill-3" fill-rule="nonzero"></path>
                <path d="M36.4816513,10.7061642 C33.5770519,10.7061642 31.990925,9.53984414 31.990925,7.24180446 C31.990925,5.10162886 33.4281921,3.32980279 36.8783664,3.32980279 C37.5544685,3.32980279 38.3017008,3.41558281 38.9484709,3.56047177 L38.9484709,5.99186695 L37.1694863,5.99186695 C37.1005561,5.70280988 37.0543583,5.43681972 37.0015606,5.19389646 C36.8673669,5.14704182 36.684042,5.1448793 36.5073168,5.1448793 C35.5459612,5.1448793 34.8617927,5.81454017 34.8617927,6.98013934 C34.8617927,8.19331399 35.484364,8.826212 37.1005561,8.826212 C37.6673966,8.826212 38.3017008,8.72745684 38.8304097,8.54436334 L39.0181344,10.4250363 C38.1961056,10.607409 37.4459402,10.7061642 36.4816513,10.7061642" id="Fill-4"></path>
                <path d="M47.7392656,7.55248674 L42.3597803,7.55248674 C42.3854458,8.50183375 43.1040793,9.03885996 44.5934107,9.03885996 C45.4858362,9.03885996 46.4090603,8.88964596 47.2501548,8.59193882 L47.5016766,10.2397803 C46.4867901,10.5656002 45.2702461,10.7321144 44.1636971,10.7321144 C41.1916342,10.7321144 39.5659091,9.58165289 39.5659091,7.09259047 C39.5659091,4.91348948 41.1109712,3.29520244 43.9004426,3.29520244 C46.623917,3.29520244 47.8199285,4.73832523 47.8199285,6.60530226 C47.8199285,6.90373024 47.7920631,7.20936664 47.7392656,7.55248674 M43.8263793,4.88681838 C43.0314827,4.88681838 42.4529093,5.37626912 42.3854458,6.10575975 L45.1081869,6.10575975 C45.1382522,5.31643935 44.6300757,4.88681838 43.8263793,4.88681838" id="Fill-5" fill-rule="nonzero"></path>
                <path d="M11.9161172,5.50962462 C11.9161172,8.73971113 9.2447071,10.6758889 5.95879194,10.6758889 C2.67214347,10.6758889 0,8.73971113 0,5.50962462 C0,2.34585544 2.68607615,0.290018182 5.95879194,0.290018182 C9.23077441,0.290018182 11.9161172,2.34585544 11.9161172,5.50962462 M3.18398654,5.49520781 C3.18398654,7.16395368 4.23480475,8.4441665 5.95879194,8.4441665 C7.68057921,8.4441665 8.73286404,7.16395368 8.73286404,5.49520781 C8.73286404,3.9432381 7.76417536,2.50804456 5.95879194,2.50804456 C4.15267521,2.50804456 3.18398654,3.9432381 3.18398654,5.49520781" id="Fill-7" fill-rule="nonzero"></path>
                <path d="M54.8867361,10.6232675 C53.7691877,10.6232675 52.5137789,10.5612752 52.1265967,10.5612752 L50.7941914,10.5612752 L50.7941914,9.41658041 C51.1953063,9.34305467 51.6470187,9.29043331 52.1265967,9.27529566 L52.1265967,4.77797146 C51.6470187,4.76643801 51.1953063,4.71886253 50.7941914,4.66912453 L50.7941914,3.46243745 L52.0525335,3.46243745 C52.9134271,3.46243745 53.8146522,3.42927878 55.336982,3.42927878 C58.4109736,3.42927878 60.5573413,4.28131232 60.5573413,6.84894636 C60.5573413,9.26376221 58.299512,10.6232675 54.8867361,10.6232675 M55.3142497,4.94881067 C54.9761986,4.94881067 55.0715276,4.94881067 54.8574041,4.97908597 L54.8574041,9.03525576 C54.9761986,9.05471845 54.9116683,9.05832265 55.2548524,9.05832265 C56.5410599,9.05832265 57.7040728,8.32739033 57.7040728,6.99743952 C57.7040728,5.89527431 57.2406275,4.94881067 55.3142497,4.94881067" id="Fill-9" fill-rule="nonzero"></path>
                <path d="M60.9430568,10.5612752 L60.9430568,9.40432612 C61.3419718,9.33007954 61.7885512,9.27817902 62.2585962,9.26159969 L62.2585962,4.77941314 C61.7885512,4.76860053 61.3419718,4.72174589 60.9430568,4.67128706 L60.9430568,3.46243745 L69.0093516,3.46243745 L69.0093516,5.40366106 L66.8813164,5.40366106 C66.826319,5.22705512 66.80432,5.06558684 66.7786545,4.90483939 L64.9872038,4.89835183 L64.9872038,6.31480351 L66.6341945,6.31480351 C66.6693928,6.17712297 66.6767258,6.10503891 66.7353898,5.97528761 L68.307584,5.97528761 L68.307584,7.90137357 L66.7353898,7.90137357 C66.6767258,7.78531824 66.6693928,7.72548847 66.6341945,7.60366642 L64.9886703,7.60078306 L64.9886703,9.21834926 L66.7647218,9.21834926 C66.8057865,9.02372231 66.8571175,8.76061551 66.9003822,8.57463864 L69.0555495,8.57463864 L69.0555495,10.5612752 L60.9430568,10.5612752" id="Fill-10"></path>
                <path d="M74.7408207,8.3836159 C74.6748238,8.3836159 74.6242261,8.3836159 74.4203688,8.37784917 L74.4203688,9.26880809 C74.8926137,9.28394575 75.3333267,9.33728795 75.7469076,9.409372 L75.7469076,10.5612752 L70.4055539,10.5612752 L70.4055539,9.41441789 C70.8162017,9.34161299 71.2547148,9.28827079 71.7159602,9.27313314 L71.7159602,4.77364641 C71.2547148,4.76283381 70.8162017,4.71525833 70.4055539,4.66552033 L70.4055539,3.46243745 L71.6961611,3.46243745 C72.1955381,3.46243745 73.4304144,3.4170245 74.5721619,3.4170245 C77.3909652,3.4170245 78.9154949,4.23806188 78.9154949,5.78931075 C78.9154949,7.16034948 77.561824,8.3836159 74.7408207,8.3836159 M74.9197458,4.94736899 C74.8823475,4.94736899 74.5560293,4.94736899 74.4203688,4.96466916 L74.4203688,6.95130572 C74.5486962,6.9758143 74.807551,6.9758143 74.8632818,6.9758143 C75.6515787,6.9758143 76.2726834,6.61971907 76.2726834,5.95077903 C76.2726834,5.44907401 75.9800969,4.94736899 74.9197458,4.94736899" id="Fill-11" fill-rule="nonzero"></path>
                <path d="M96.0637043,5.81309849 C96.0123733,5.58459203 95.9478429,5.21696335 95.918511,4.96034412 L94.8368941,4.96034412 L94.8368941,9.27457482 C95.3047393,9.29043331 95.7278531,9.34305467 96.1267681,9.41658041 L96.1267681,10.5612752 L90.8030135,10.5612752 L90.8030135,9.41225536 C91.2092615,9.33872963 91.6551075,9.28610827 92.1266191,9.27024978 L92.1266191,4.96034412 L91.0266699,4.96034412 C91.0046709,5.21696335 90.9342741,5.58459203 90.8792766,5.81309849 L89.0628937,5.81309849 L89.0628937,3.46243745 L97.8837536,3.46243745 L97.8837536,5.81309849 L96.0637043,5.81309849" id="Fill-12"></path>
                <path d="M98.0040147,9.17077378 C98.4527937,9.17077378 98.7776458,9.49947707 98.7776458,9.89666021 C98.7776458,10.3161894 98.4527937,10.6225467 97.9974147,10.6225467 C97.5691682,10.6225467 97.2098513,10.3161894 97.2098513,9.89666021 C97.2098513,9.49947707 97.5691682,9.17077378 97.9974147,9.17077378 L98.0040147,9.17077378 Z M97.9974147,9.28827079 C97.6630303,9.28827079 97.372644,9.558586 97.372644,9.89666021 C97.372644,10.2304094 97.6630303,10.512258 98.0040147,10.512258 C98.3647983,10.512258 98.6383189,10.2304094 98.6383189,9.90458946 C98.6383189,9.558586 98.3647983,9.28827079 98.0040147,9.28827079 L97.9974147,9.28827079 Z M97.8610211,10.3161894 L97.7180285,10.3161894 L97.7180285,9.508848 C97.7964915,9.49947707 97.8610211,9.4893853 97.9717499,9.4893853 C98.0971435,9.4893853 98.1895399,9.51461472 98.2482038,9.558586 C98.2914687,9.58814046 98.3222668,9.64436602 98.3222668,9.7222168 C98.3222668,9.83466793 98.2482038,9.89017265 98.1580074,9.91179787 L98.1580074,9.92909804 C98.2284047,9.92909804 98.2775353,10.0011821 98.2914687,10.1201208 C98.3222668,10.2361761 98.3420659,10.2924017 98.3523316,10.3161894 L98.2005389,10.3161894 C98.1778065,10.2924017 98.1697408,10.2152717 98.1521417,10.1136332 C98.1286759,10.0098322 98.063412,9.96297755 97.9504842,9.96297755 L97.8610211,9.96297755 L97.8610211,10.3161894 Z M97.8610211,9.87936004 L97.9570832,9.87936004 C98.0839444,9.87936004 98.1778065,9.83466793 98.1778065,9.73663361 C98.1778065,9.66238704 98.1176759,9.59823223 97.9570832,9.59823223 C97.913086,9.59823223 97.8742212,9.59895307 97.8610211,9.59895307 L97.8610211,9.87936004 Z" id="Fill-13" fill-rule="nonzero"></path>
                <path d="M88.7607748,7.02483146 C88.7607748,9.4129762 86.7427345,10.8445655 84.0581249,10.8445655 C81.3742486,10.8445655 79.3642747,9.4129762 79.3642747,7.02483146 C79.3642747,4.68498303 81.3837816,3.16545114 84.0581249,3.16545114 C86.731735,3.16545114 88.7607748,4.68498303 88.7607748,7.02483146 M82.0503508,7.00681044 C82.0503508,8.11402153 82.7939165,9.06048517 84.0581249,9.06048517 C85.3223332,9.06048517 86.065899,8.11402153 86.065899,7.00681044 C86.065899,5.97889182 85.3824638,4.96106496 84.0581249,4.96106496 C82.7323194,4.96106496 82.0503508,5.97889182 82.0503508,7.00681044" id="Fill-14" fill-rule="nonzero"></path>
                <path d="M11.8325215,20.1772882 C11.8325215,21.5959024 11.9909142,23.5385677 13.9187587,23.5385677 C15.8004053,23.5385677 16.0042625,21.7040285 16.0042625,20.2702766 C16.0042625,18.8531041 15.863469,16.8333088 13.9502906,16.8333088 C12.0363788,16.8333088 11.8325215,18.713261 11.8325215,20.1772882 M17.6981844,16.1398602 C18.6228752,17.2189585 19.0151904,18.7759741 19.0151904,20.1621505 C19.0151904,21.457501 18.7013382,22.9842413 17.9013084,24.0316226 C16.9912837,25.2174053 15.4564878,25.7580357 13.9656899,25.7580357 C12.4924911,25.7580357 11.0486244,25.372386 10.0608699,24.2168786 C9.16624448,23.1680556 8.822327,21.5029139 8.822327,20.1484545 C8.822327,18.8675209 9.12004661,17.3724976 9.92007639,16.3236746 C10.8301011,15.1696089 12.3670969,14.6138408 13.8248964,14.6138408 C15.2980951,14.6138408 16.7111633,14.9843528 17.6981844,16.1398602" id="Fill-16" fill-rule="nonzero"></path>
                <path d="M23.2045301,22.6447254 C23.2045301,22.845119 23.1414664,23.7238237 23.4868504,23.7238237 C23.6437765,23.7238237 23.7999693,23.6149768 24.0030934,23.6149768 C24.5215361,23.6149768 24.6945947,24.0316226 24.6945947,24.4936814 C24.6945947,25.0804456 24.4276737,25.557642 23.7684375,25.557642 C23.0960018,25.5425044 22.4682974,25.404103 21.8251938,25.404103 C21.2290212,25.404103 20.6335821,25.5425044 20.1151392,25.557642 C19.5197,25.557642 19.2535124,25.0804456 19.2535124,24.4936814 C19.2535124,24.0316226 19.4258377,23.6149768 19.9428138,23.6149768 C20.1466711,23.6149768 20.3035972,23.7238237 20.45979,23.7238237 C20.8059074,23.7238237 20.7428436,22.845119 20.7428436,22.6447254 L20.7428436,19.8240763 C20.7428436,19.2848876 20.7751088,19.2221744 20.2097349,19.2221744 C19.598163,19.2221744 19.2535124,19.0830522 19.2535124,18.4061829 C19.2535124,17.7725641 19.4889015,17.4957613 20.1312718,17.4957613 C20.6174495,17.4957613 20.7428436,17.5418951 20.758243,16.9868479 C20.8205734,15.3094519 22.2945055,14.6138408 23.8469006,14.6138408 C24.3653433,14.6138408 25.0077137,14.7061084 25.4630927,14.9360565 C25.9962014,15.214301 26.403916,15.7087976 26.403916,16.3092578 C26.403916,16.9868479 25.9324044,17.510899 25.2277035,17.510899 C24.7099941,17.510899 24.1607527,17.1569663 24.1607527,16.601919 C24.1607527,16.4318007 24.2076839,16.3416956 24.3015462,16.1867149 C24.1930179,16.1398602 24.1138216,16.1240017 23.9891607,16.1240017 C23.4083874,16.1240017 23.2045301,16.4627968 23.2045301,17.0034272 C23.2045301,17.4957613 23.236062,17.4957613 23.7376389,17.4957613 C24.3961419,17.4957613 24.8515209,17.5260366 24.8515209,18.329053 C24.8515209,19.0383601 24.5523346,19.2221744 23.8630331,19.2221744 C23.2206627,19.2221744 23.2045301,19.1933408 23.2045301,19.8240763 L23.2045301,22.6447254" id="Fill-18"></path>
                <path d="M29.4185103,22.6447254 C29.4185103,22.845119 29.3569132,23.7238237 29.701564,23.7238237 C29.8592233,23.7238237 30.0161495,23.6149768 30.2192734,23.6149768 C30.7369829,23.6149768 30.9093083,24.0316226 30.9093083,24.4936814 C30.9093083,25.0804456 30.6438539,25.557642 29.9838843,25.557642 C29.309982,25.5425044 28.6822776,25.404103 28.0391739,25.404103 C27.4452013,25.404103 26.8490288,25.5425044 26.330586,25.557642 C25.7351468,25.557642 25.4682258,25.0804456 25.4682258,24.4936814 C25.4682258,24.0316226 25.6405512,23.6149768 26.1589939,23.6149768 C26.3621179,23.6149768 26.519044,23.7238237 26.6752368,23.7238237 C27.0206209,23.7238237 26.9590237,22.845119 26.9590237,22.6447254 L26.9590237,19.8240763 C26.9590237,19.2848876 26.9898223,19.2221744 26.4251816,19.2221744 C25.8128766,19.2221744 25.4682258,19.0830522 25.4682258,18.4061829 C25.4682258,17.7725641 25.7036149,17.4957613 26.3467186,17.4957613 C26.8328962,17.4957613 26.9590237,17.5418951 26.9736897,16.9868479 C27.0367534,15.3094519 28.5106855,14.6138408 30.0630806,14.6138408 C30.5800568,14.6138408 31.2231604,14.7061084 31.6778061,14.9360565 C32.2109149,15.214301 32.6186294,15.7087976 32.6186294,16.3092578 C32.6186294,16.9868479 32.1478511,17.510899 31.442417,17.510899 C30.9254408,17.510899 30.3761995,17.1569663 30.3761995,16.601919 C30.3761995,16.4318007 30.4231307,16.3416956 30.5177263,16.1867149 C30.4084646,16.1398602 30.3300016,16.1240017 30.2038741,16.1240017 C29.6238342,16.1240017 29.4185103,16.4627968 29.4185103,17.0034272 C29.4185103,17.4957613 29.4507755,17.4957613 29.9530856,17.4957613 C30.6108553,17.4957613 31.0669677,17.5260366 31.0669677,18.329053 C31.0669677,19.0383601 30.7677814,19.2221744 30.0784799,19.2221744 C29.4353762,19.2221744 29.4185103,19.1933408 29.4185103,19.8240763 L29.4185103,22.6447254" id="Fill-19"></path>
                <path d="M35.8392806,15.4449699 C35.8392806,16.2487072 35.1800443,16.8953011 34.3646152,16.8953011 C33.5499194,16.8953011 32.8906832,16.2487072 32.8906832,15.4449699 C32.8906832,14.6441161 33.5499194,13.9960804 34.3646152,13.9960804 C35.1800443,13.9960804 35.8392806,14.6441161 35.8392806,15.4449699 M35.7608175,22.6447254 C35.7446849,22.845119 35.6823545,23.722382 36.0277385,23.722382 C36.1846646,23.722382 36.3401241,23.6149768 36.5432481,23.6149768 C37.0616909,23.6149768 37.2354829,24.0316226 37.2354829,24.4936814 C37.2354829,25.0797248 36.9678285,25.557642 36.3093255,25.557642 C35.6354233,25.5425044 35.0077189,25.404103 34.3646152,25.404103 C33.769176,25.404103 33.1737368,25.5425044 32.6090961,25.557642 C31.9505932,25.557642 31.6836722,25.0797248 31.6836722,24.4936814 C31.6836722,24.0316226 31.8552642,23.6149768 32.373707,23.6149768 C32.5775643,23.6149768 32.7337571,23.722382 32.8906832,23.722382 C33.2360672,23.722382 33.1737368,22.845119 33.1737368,22.6447254 L33.1737368,20.4245365 C33.1737368,20.223422 33.2360672,19.3454382 32.8906832,19.3454382 C32.7337571,19.3454382 32.5775643,19.4550059 32.373707,19.4550059 C31.8552642,19.4550059 31.6836722,19.0383601 31.6836722,18.5748596 C31.6836722,17.9895371 31.9505932,17.510899 32.6237621,17.510899 C33.0637419,17.510899 33.487589,17.6651588 33.9107028,17.6651588 C34.3807478,17.6651588 34.8353935,17.510899 35.2900392,17.510899 C35.7608175,17.510899 35.7608175,17.9426825 35.7608175,18.297336 L35.7608175,22.6447254" id="Fill-20" fill-rule="nonzero"></path>
                <path d="M41.0185751,19.2985835 C39.8577619,19.2985835 39.4507807,20.5031081 39.4507807,21.457501 C39.4507807,21.9512768 39.5600423,22.5834539 39.843096,22.9993789 C40.124683,23.3994454 40.6577917,23.6776899 41.1432361,23.6776899 C41.8662693,23.6776899 42.1001919,23.2913193 42.3517136,22.705276 C42.4609753,22.4443317 42.4932405,22.2742133 42.7440289,22.1192326 C42.9471528,21.9822729 43.1979413,21.9354183 43.4325971,21.9354183 C44.1035662,21.9354183 44.6528075,22.3679226 44.6528075,23.075788 C44.6528075,23.8153704 44.1981619,24.4936814 43.6210551,24.9406025 C42.9002217,25.5273667 41.9740644,25.7580357 41.0508403,25.7580357 C39.9354917,25.7580357 38.8546082,25.4646536 38.0545784,24.6637998 C37.2552819,23.8773627 36.8637,22.6605839 36.8637,21.5663479 C36.8637,18.9446508 38.4945581,17.28023 41.1755012,17.28023 C42.6333007,17.28023 44.4511502,17.9592618 44.4511502,19.6698164 C44.4511502,20.4872496 43.7757813,21.0257175 42.9772181,21.0257175 C42.3348478,21.0257175 41.7225426,20.7330562 41.7225426,20.0251908 C41.7225426,19.8240763 41.7702071,19.7166711 41.880202,19.5616903 C41.6140143,19.3612967 41.3786252,19.2985835 41.0185751,19.2985835" id="Fill-22"></path>
                <path d="M49.5769139,20.2400013 C49.8291689,20.2400013 50.1268885,20.3171312 50.1268885,19.9768945 C50.1268885,19.7462255 49.9677625,19.4679811 49.797637,19.3166045 C49.5615146,19.1147692 49.261595,19.0225016 48.9499428,19.0225016 C48.5268289,19.0225016 48.1821781,19.1147692 47.8844586,19.4391474 C47.7414651,19.5782697 47.4921433,19.8240763 47.4921433,20.0237491 C47.4921433,20.3171312 47.9783208,20.2400013 48.1506462,20.2400013 L49.5769139,20.2400013 M48.1176478,21.9512768 C47.8045289,21.9512768 47.4136803,21.8590092 47.4136803,22.2734925 C47.4136803,23.1536388 48.1176478,23.8153704 49.0291391,23.8153704 C50.3622776,23.8153704 50.267682,22.5978707 51.4915589,22.5978707 C52.1016641,22.5978707 52.5724424,22.953966 52.5724424,23.568843 C52.5724424,24.2471539 52.0547329,24.8022011 51.4915589,25.1402754 C50.7531263,25.589359 49.8607008,25.7580357 48.9990738,25.7580357 C46.4251925,25.7580357 44.8258663,24.0626187 44.8258663,21.5663479 C44.8258663,19.1313485 46.362862,17.28023 48.9330769,17.28023 C49.8761001,17.28023 50.8785205,17.4806237 51.5854212,18.1279385 C52.3223872,18.7911118 52.7132359,19.8384931 52.7132359,20.8094653 C52.7132359,21.7191661 52.6193735,21.9512768 51.6785502,21.9512768 L48.1176478,21.9512768" id="Fill-23" fill-rule="nonzero"></path>
                <path d="M62.4367876,16.2169902 C62.5768478,15.648247 62.7337739,14.8142345 63.6261994,14.8293721 C64.4262292,14.8293721 65.211593,14.9843528 66.0108895,14.9843528 C66.57773,14.9843528 67.3608939,14.8293721 68.1587238,14.8293721 C68.8648912,14.8293721 69.2564731,15.3397272 69.2564731,16.0014588 C69.2564731,16.4627968 68.9756194,17.0344234 68.4425107,17.0344234 C68.2078549,17.0344234 67.987865,16.9255764 67.7363433,16.9255764 C67.2640984,16.9255764 67.3447613,17.8806902 67.3447613,18.1740723 L67.3447613,22.2129419 C67.3447613,22.5056031 67.2640984,23.459996 67.7363433,23.459996 C67.987865,23.459996 68.2078549,23.3533116 68.4425107,23.3533116 C68.9756194,23.3533116 69.2564731,23.9234965 69.2564731,24.386997 C69.2564731,25.0494495 68.8648912,25.557642 68.1587238,25.557642 C67.4855548,25.557642 66.8094526,25.404103 66.2638778,25.404103 C65.5723764,25.404103 64.8977408,25.557642 64.2231053,25.557642 C63.6261994,25.557642 63.360745,25.0494495 63.360745,24.386997 C63.360745,23.9234965 63.5484697,23.3533116 63.9099864,23.3533116 C64.0661792,23.3533116 64.2231053,23.459996 64.3954306,23.459996 C64.7246821,23.459996 64.6784843,22.5056031 64.6784843,22.2129419 L64.6784843,16.8953011 L62.5137841,24.201741 C62.4191884,24.5239567 62.3260594,24.8036428 62.1222021,25.0804456 C61.9036788,25.3889654 61.6675564,25.3889654 61.3075063,25.3889654 L60.772931,25.3889654 C59.818175,25.3889654 59.7712438,25.1107209 59.5505207,24.201741 L57.4496176,16.8953011 L57.4496176,22.2129419 C57.4496176,22.5056031 57.4188189,23.459996 57.7480705,23.459996 C57.9203958,23.459996 58.0758553,23.3533116 58.2335148,23.3533116 C58.5935648,23.3533116 58.7834894,23.9234965 58.7834894,24.386997 C58.7834894,25.0494495 58.5151017,25.557642 58.0296575,25.557642 C57.3557552,25.557642 56.6818529,25.404103 56.1318783,25.404103 C55.44331,25.404103 54.7686745,25.557642 54.0940389,25.557642 C53.2632105,25.557642 52.8708953,25.0494495 52.8708953,24.386997 C52.8708953,23.9234965 53.1524823,23.3533116 53.6870577,23.3533116 C53.9224468,23.3533116 54.1409701,23.459996 54.3902919,23.459996 C54.8610702,23.459996 54.7840738,22.5056031 54.7840738,22.2129419 L54.7840738,18.1740723 C54.7840738,17.8806902 54.8610702,16.9255764 54.3902919,16.9255764 C54.1409701,16.9255764 53.9224468,17.0344234 53.6870577,17.0344234 C53.1524823,17.0344234 52.8708953,16.4627968 52.8708953,16.0014588 C52.8708953,15.3397272 53.2632105,14.8293721 54.3594933,14.8293721 C55.1609898,14.8293721 55.9434203,14.9843528 56.7441834,14.9843528 C57.3051576,14.9843528 58.0919879,14.8293721 58.8912844,14.8293721 C59.6465829,14.8142345 59.6766482,15.413253 59.818175,15.9834378 L61.1014491,21.3349581 L62.4367876,16.2169902" id="Fill-24"></path>
                <path d="M74.2715086,22.0276859 C73.8168629,22.5056031 71.99828,22.2734925 71.99828,23.0930882 C71.99828,23.6315561 72.4375265,23.8153704 72.8936388,23.8153704 C73.8168629,23.8153704 74.2715086,23.2769025 74.2715086,22.3679226 L74.2715086,22.0276859 M72.6897815,19.4232889 C72.6897815,20.1318752 71.99828,20.4548118 71.341977,20.4548118 C70.5720125,20.4548118 69.8981102,19.9163439 69.8981102,19.1313485 C69.8981102,17.5418951 72.1236743,17.28023 73.3145528,17.28023 C74.0991832,17.28023 75.166134,17.3573599 75.8561689,17.7437305 C76.7815929,18.2829192 76.8607893,19.1616238 76.8607893,20.1167376 L76.8607893,23.0145166 C76.8607893,23.2149102 76.8123915,23.722382 77.1262436,23.722382 C77.2509046,23.722382 77.3770321,23.7079652 77.5024263,23.7079652 C78.0018033,23.7079652 78.2870568,24.1231693 78.2870568,24.572253 C78.2870568,25.43582 77.4078307,25.7580357 76.671598,25.7580357 C75.9514978,25.7580357 75.1485348,25.4963706 74.8838137,24.771205 C74.1461144,25.4646536 73.1906251,25.7580357 72.2021374,25.7580357 C70.7758698,25.7580357 69.4111994,25.0177325 69.4111994,23.4463001 C69.4111994,19.793801 74.2715086,21.6896116 74.2715086,19.6532371 C74.2715086,19.0679146 73.7222673,18.7911118 73.2052911,18.7911118 C72.9398367,18.7911118 72.6897815,18.8372456 72.6897815,19.1450445 L72.6897815,19.4232889" id="Fill-25" fill-rule="nonzero"></path>
                <path d="M80.3402959,20.0093323 C80.1973024,19.8082178 79.8687842,19.3454382 79.6326619,19.3454382 C79.491135,19.3454382 79.3342089,19.4067096 79.1956153,19.4550059 C78.7409696,19.4550059 78.5833103,19.0383601 78.5833103,18.5755805 C78.5833103,17.9895371 78.8164995,17.510899 79.4134052,17.510899 C79.8064538,17.5260366 80.2281011,17.6651588 80.6519482,17.6651588 C81.1234598,17.6651588 81.5766389,17.5260366 82.0650163,17.510899 C82.56366,17.510899 82.8789788,17.8359981 82.8789788,18.3896036 C82.8789788,18.9136547 82.4719976,18.9446508 82.4719976,19.1933408 C82.4719976,19.4067096 82.8327809,19.9768945 82.92591,20.1318752 L83.1466332,20.5333834 L83.3805557,20.1318752 C83.4758847,19.9768945 83.8044029,19.5148357 83.8044029,19.3000252 C83.8044029,18.9907846 83.2874267,19.1760406 83.2874267,18.4205997 C83.2874267,17.8504149 83.5521478,17.510899 83.9305304,17.510899 C84.3235789,17.5260366 84.7422929,17.6651588 85.1705399,17.6651588 C85.6383849,17.6651588 86.0930307,17.5260366 86.5792082,17.510899 C87.1460488,17.510899 87.3785047,17.9895371 87.3785047,18.5755805 C87.3785047,19.0383601 87.2384445,19.4550059 86.7837988,19.4550059 C86.627606,19.3771552 86.4714132,19.3295797 86.3291531,19.3295797 C86.0930307,19.3295797 86.0314335,19.499698 85.9060393,19.7015334 L84.840555,21.3190996 L85.9060393,23.075788 C86.0314335,23.261044 86.2638894,23.6618314 86.4868125,23.6618314 C86.5968074,23.6618314 86.7376009,23.5998391 86.8783944,23.6149768 C87.3330401,23.6149768 87.474567,24.0316226 87.474567,24.4936814 C87.474567,25.0804456 87.2384445,25.557642 86.6723373,25.557642 C86.1876263,25.5425044 85.7307807,25.404103 85.2636689,25.404103 C84.840555,25.404103 84.4167079,25.5425044 84.025126,25.557642 C83.5521478,25.5273667 83.2082303,25.1107209 83.2082303,24.585949 C83.2082303,24.3257255 83.2720273,24.2320163 83.4428861,24.0770355 C83.5382151,23.9999056 83.7252065,23.8615042 83.7252065,23.7079652 C83.7252065,23.5227092 83.3805557,22.9683828 83.2874267,22.8299814 L83.0527708,22.4284732 L82.5973918,23.1536388 C82.5027962,23.2913193 82.2835396,23.5998391 82.2835396,23.7699575 C82.2835396,24.1390278 82.8166483,23.939355 82.8166483,24.572253 C82.8166483,25.1705507 82.4543984,25.5107874 81.9388889,25.557642 C81.4497781,25.5425044 80.9987989,25.404103 80.5272873,25.404103 C80.1034401,25.404103 79.6803263,25.5425044 79.2894777,25.557642 C78.7409696,25.557642 78.5055805,25.0804456 78.5055805,24.4936814 C78.5055805,24.0316226 78.6456407,23.6149768 79.0995531,23.6149768 C79.2733451,23.6149768 79.4273379,23.6776899 79.6018632,23.6776899 C79.8687842,23.6776899 80.056509,23.3533116 80.1973024,23.1233635 L80.4642235,22.736993 L81.3119177,21.4113672 L80.3402959,20.0093323" id="Fill-27"></path>
                <path d="M88.8480369,17.9253823 L89.0680268,17.9253823 C89.1802216,17.9253823 89.3026827,17.9462867 89.3026827,18.0861297 C89.3026827,18.2526439 89.1692222,18.2591315 89.0203623,18.2591315 L88.8480369,18.2591315 L88.8480369,17.9253823 Z M88.6823113,18.8422915 L88.8480369,18.8422915 L88.8480369,18.3917661 L89.0240288,18.3917661 L89.3151487,18.8422915 L89.4933405,18.8422915 L89.1875547,18.3795118 C89.3474139,18.3614908 89.4691416,18.28364 89.4691416,18.0926173 C89.4691416,17.8907819 89.3488805,17.7927476 89.0951589,17.7927476 L88.6823113,17.7927476 L88.6823113,18.8422915 Z M88.1176706,18.3139153 C88.1176706,18.8314789 88.5378513,19.2178494 89.0379615,19.2178494 C89.5388051,19.2178494 89.9560526,18.8314789 89.9560526,18.3139153 C89.9560526,17.8071644 89.5388051,17.4207939 89.0379615,17.4207939 C88.5378513,17.4207939 88.1176706,17.8071644 88.1176706,18.3139153 Z M88.2833963,18.3139153 C88.2833963,17.8835735 88.6126478,17.5519869 89.0379615,17.5519869 C89.4618086,17.5519869 89.7895936,17.8835735 89.7895936,18.3139153 C89.7895936,18.7529072 89.4618086,19.0859356 89.0379615,19.0859356 C88.6126478,19.0859356 88.2833963,18.7529072 88.2833963,18.3139153 Z" id="Fill-28" fill-rule="nonzero"></path>
            </g>
        </g>
    </g>
</svg>